<svg width="20" height="20" viewBox="0 0 20 20" fill="none" xmlns="http://www.w3.org/2000/svg">
<path d="M12.5817 10.5283L10.8334 9.51916V5.83332C10.8334 5.61231 10.7456 5.40035 10.5893 5.24407C10.433 5.08779 10.221 4.99999 10 4.99999C9.77901 4.99999 9.56705 5.08779 9.41077 5.24407C9.25449 5.40035 9.16669 5.61231 9.16669 5.83332V9.99999C9.16669 10.1463 9.2052 10.29 9.27834 10.4166C9.35148 10.5433 9.45668 10.6485 9.58336 10.7217L11.7484 11.9717C11.8432 12.0272 11.948 12.0635 12.0569 12.0784C12.1658 12.0933 12.2766 12.0865 12.3828 12.0584C12.4891 12.0303 12.5887 11.9815 12.676 11.9147C12.7633 11.848 12.8365 11.7646 12.8915 11.6694C12.9464 11.5743 12.982 11.4691 12.9962 11.3602C13.0104 11.2512 13.0028 11.1405 12.974 11.0344C12.9452 10.9284 12.8957 10.829 12.8284 10.7422C12.7611 10.6553 12.6772 10.5826 12.5817 10.5283ZM10 1.66666C8.35185 1.66666 6.74068 2.1554 5.37027 3.07108C3.99986 3.98675 2.93176 5.28824 2.30103 6.81096C1.6703 8.33368 1.50527 10.0092 1.82681 11.6257C2.14836 13.2422 2.94203 14.7271 4.10747 15.8925C5.27291 17.058 6.75776 17.8517 8.37427 18.1732C9.99078 18.4947 11.6663 18.3297 13.1891 17.699C14.7118 17.0683 16.0133 16.0001 16.9289 14.6297C17.8446 13.2593 18.3334 11.6482 18.3334 9.99999C18.3312 7.79053 17.4525 5.67219 15.8901 4.10987C14.3278 2.54754 12.2095 1.66886 10 1.66666ZM10 16.6667C8.68148 16.6667 7.39255 16.2757 6.29622 15.5431C5.19989 14.8106 4.34541 13.7694 3.84083 12.5512C3.33624 11.333 3.20422 9.99259 3.46146 8.69939C3.71869 7.40618 4.35363 6.21829 5.28598 5.28594C6.21833 4.35359 7.40622 3.71866 8.69942 3.46142C9.99263 3.20419 11.3331 3.33621 12.5512 3.84079C13.7694 4.34538 14.8106 5.19986 15.5432 6.29619C16.2757 7.39252 16.6667 8.68145 16.6667 9.99999C16.6645 11.7674 15.9614 13.4618 14.7116 14.7116C13.4619 15.9614 11.7675 16.6644 10 16.6667Z" fill="#504140"/>
</svg>
